<?xml version="1.0" encoding="UTF-8" standalone="no"?>
<!-- Created with Inkscape (http://www.inkscape.org/) -->
<svg
   xmlns:svg="http://www.w3.org/2000/svg"
   xmlns="http://www.w3.org/2000/svg"
   version="1.0"
   width="240"
   height="370"
   id="svg3833">
  <defs
     id="defs3835" />
  <g
     transform="translate(-1188.571,-910.2193)"
     id="layer1">
    <path
       d="M 243 193 A 110 110 0 1 1  23,193 A 110 110 0 1 1  243 193 z"
       transform="matrix(1.081459,0,0,1.076913,1165.736,886.8752)"
       style="fill:#bbe0e3;fill-opacity:1;stroke:black;stroke-opacity:1"
       id="path3884" />
    <path
       d="M 50,90 C 113.06885,-93.827936 188.06974,51.91725 188.25059,187.99945 C 188.43111,323.83201 107.93023,458.00402 50,281"
       transform="translate(1188.571,910.2193)"
       style="fill:none;fill-opacity:1;fill-rule:evenodd;stroke:#9c0;stroke-width:6;stroke-linecap:butt;stroke-linejoin:miter;stroke-miterlimit:4;stroke-dasharray:none;stroke-opacity:1"
       id="path3886" />
    <path
       d="M 1263.0899,985.96807 C 1302.4377,828.65206 1353.1755,962.78421 1353.3027,1099.2277 C 1353.4297,1235.4209 1297.8244,1360.9492 1263.0899,1203.4752"
       style="fill:none;fill-opacity:1;fill-rule:evenodd;stroke:#0000b4;stroke-width:5.03796387;stroke-linecap:butt;stroke-linejoin:miter;stroke-miterlimit:4;stroke-dasharray:none;stroke-opacity:1"
       id="path4773" />
    <path
       d="M 162 182 A 4 4 0 1 1  154,182 A 4 4 0 1 1  162 182 z"
       transform="matrix(1.441942,0,0,1.707107,1118.037,784.5311)"
       style="fill:black;fill-opacity:1;stroke:none;stroke-width:6;stroke-miterlimit:4;stroke-dasharray:none;stroke-opacity:1"
       id="path6545" />
    <path
       d="M 162 182 A 4 4 0 1 1  154,182 A 4 4 0 1 1  162 182 z"
       transform="matrix(1.441942,0,0,1.707107,1156.398,784.1775)"
       style="fill:black;fill-opacity:1;stroke:none;stroke-width:6;stroke-miterlimit:4;stroke-dasharray:none;stroke-opacity:1"
       id="path7432" />
    <path
       d="M 1322.321,1088.2193 L 1327.821,1077.2193 L 1333.821,1088.4693 L 1322.321,1088.2193 z "
       style="fill:black;fill-rule:evenodd;stroke:black;stroke-width:1px;stroke-linecap:butt;stroke-linejoin:miter;stroke-opacity:1"
       id="path7434" />
    <path
       d="M 1379.696,1108.3443 L 1390.696,1113.8443 L 1379.446,1119.8443 L 1379.696,1108.3443 z "
       style="fill:black;fill-rule:evenodd;stroke:black;stroke-width:1px;stroke-linecap:butt;stroke-linejoin:miter;stroke-opacity:1"
       id="path7436" />
    <path
       d="M 139,178.25 L 139,203.5"
       transform="translate(1188.571,910.2193)"
       style="fill:none;fill-rule:evenodd;stroke:black;stroke-width:1px;stroke-linecap:butt;stroke-linejoin:miter;stroke-opacity:1"
       id="path7438" />
    <path
       d="M 1341.2965,1113.7193 L 1379.0955,1113.7193"
       style="fill:none;fill-rule:evenodd;stroke:black;stroke-width:0.97515142px;stroke-linecap:butt;stroke-linejoin:miter;stroke-opacity:1"
       id="path7440" />
    <text
       x="1295.071"
       y="1106.2194"
       style="font-size:20px;font-style:normal;font-weight:bold;fill:black;fill-opacity:1;stroke:none;stroke-width:1px;stroke-linecap:butt;stroke-linejoin:miter;stroke-opacity:1;font-family:Sans"
       id="text7442"
       xml:space="preserve"><tspan
         x="1295.071"
         y="1106.2194"
         style="font-size:24px"
         id="tspan7444">V</tspan></text>
    <text
       x="1361.571"
       y="1141.2194"
       style="font-size:20px;font-style:normal;font-weight:bold;fill:black;fill-opacity:1;stroke:none;stroke-width:1px;stroke-linecap:butt;stroke-linejoin:miter;stroke-opacity:1;font-family:Sans"
       id="text7446"
       xml:space="preserve"><tspan
         x="1361.571"
         y="1141.2194"
         style="font-size:24px"
         id="tspan7448">h</tspan></text>
    <text
       x="1290.071"
       y="1018.2193"
       style="font-size:32px;font-style:normal;font-weight:bold;fill:black;fill-opacity:1;stroke:none;stroke-width:1px;stroke-linecap:butt;stroke-linejoin:miter;stroke-opacity:1;font-family:Sans"
       id="text7450"
       xml:space="preserve"><tspan
         x="1290.071"
         y="1018.2193"
         id="tspan7452">N</tspan></text>
    <text
       x="1291.071"
       y="1192.7194"
       style="font-size:32px;font-style:normal;font-weight:bold;fill:black;fill-opacity:1;stroke:none;stroke-width:1px;stroke-linecap:butt;stroke-linejoin:miter;stroke-opacity:1;font-family:Sans"
       id="text7454"
       xml:space="preserve"><tspan
         x="1291.071"
         y="1192.7194"
         id="tspan7456">S</tspan></text>
  </g>
</svg>
